<svg width="0" height="0" class="hidden">
  <symbol aria-hidden="true" data-prefix="fas" data-icon="align-right" xmlns="http://www.w3.org/2000/svg" viewBox="0 0 448 512" id="align">
    <path fill="currentColor" d="M16 224h416a16 16 0 0016-16v-32a16 16 0 00-16-16H16a16 16 0 00-16 16v32a16 16 0 0016 16zm416 192H16a16 16 0 00-16 16v32a16 16 0 0016 16h416a16 16 0 0016-16v-32a16 16 0 00-16-16zm3.17-384H172.83A12.82 12.82 0 00160 44.83v38.34A12.82 12.82 0 00172.83 96h262.34A12.82 12.82 0 00448 83.17V44.83A12.82 12.82 0 00435.17 32zm0 256H172.83A12.82 12.82 0 00160 300.83v38.34A12.82 12.82 0 00172.83 352h262.34A12.82 12.82 0 00448 339.17v-38.34A12.82 12.82 0 00435.17 288z"></path>
  </symbol>
  <symbol aria-hidden="true" data-prefix="fab" data-icon="instagram" xmlns="http://www.w3.org/2000/svg" viewBox="0 0 448 512" id="instagram">
    <path fill="currentColor" d="M224.1 141c-63.6 0-114.9 51.3-114.9 114.9s51.3 114.9 114.9 114.9S339 319.5 339 255.9 287.7 141 224.1 141zm0 189.6c-41.1 0-74.7-33.5-74.7-74.7s33.5-74.7 74.7-74.7 74.7 33.5 74.7 74.7-33.6 74.7-74.7 74.7zm146.4-194.3c0 14.9-12 26.8-26.8 26.8-14.9 0-26.8-12-26.8-26.8s12-26.8 26.8-26.8 26.8 12 26.8 26.8zm76.1 27.2c-1.7-35.9-9.9-67.7-36.2-93.9-26.2-26.2-58-34.4-93.9-36.2-37-2.1-147.9-2.1-184.9 0-35.8 1.7-67.6 9.9-93.9 36.1s-34.4 58-36.2 93.9c-2.1 37-2.1 147.9 0 184.9 1.7 35.9 9.9 67.7 36.2 93.9s58 34.4 93.9 36.2c37 2.1 147.9 2.1 184.9 0 35.9-1.7 67.7-9.9 93.9-36.2 26.2-26.2 34.4-58 36.2-93.9 2.1-37 2.1-147.8 0-184.8zM398.8 388c-7.8 19.6-22.9 34.7-42.6 42.6-29.5 11.7-99.5 9-132.1 9s-102.7 2.6-132.1-9c-19.6-7.8-34.7-22.9-42.6-42.6-11.7-29.5-9-99.5-9-132.1s-2.6-102.7 9-132.1c7.8-19.6 22.9-34.7 42.6-42.6 29.5-11.7 99.5-9 132.1-9s102.7-2.6 132.1 9c19.6 7.8 34.7 22.9 42.6 42.6 11.7 29.5 9 99.5 9 132.1s2.7 102.7-9 132.1z"></path>
  </symbol>
  <symbol aria-hidden="true" data-prefix="fab" data-icon="twitter" xmlns="http://www.w3.org/2000/svg" viewBox="0 0 512 512" id="twitter">
    <path fill="currentColor" d="M459.37 151.716c.325 4.548.325 9.097.325 13.645 0 138.72-105.583 298.558-298.558 298.558-59.452 0-114.68-17.219-161.137-47.106 8.447.974 16.568 1.299 25.34 1.299 49.055 0 94.213-16.568 130.274-44.832-46.132-.975-84.792-31.188-98.112-72.772 6.498.974 12.995 1.624 19.818 1.624 9.421 0 18.843-1.3 27.614-3.573-48.081-9.747-84.143-51.98-84.143-102.985v-1.299c13.969 7.797 30.214 12.67 47.431 13.319-28.264-18.843-46.781-51.005-46.781-87.391 0-19.492 5.197-37.36 14.294-52.954 51.655 63.675 129.3 105.258 216.365 109.807-1.624-7.797-2.599-15.918-2.599-24.04 0-57.828 46.782-104.934 104.934-104.934 30.213 0 57.502 12.67 76.67 33.137 23.715-4.548 46.456-13.32 66.599-25.34-7.798 24.366-24.366 44.833-46.132 57.827 21.117-2.273 41.584-8.122 60.426-16.243-14.292 20.791-32.161 39.308-52.628 54.253z"></path>
  </symbol>
  <symbol aria-hidden="true" data-prefix="fab" data-icon="facebook" xmlns="http://www.w3.org/2000/svg" viewBox="0 0 512 512" id="facebook">
    <path fill="currentColor" d="M504 256C504 119 393 8 256 8S8 119 8 256c0 123.78 90.69 226.38 209.25 245V327.69h-63V256h63v-54.64c0-62.15 37-96.48 93.67-96.48 27.14 0 55.52 4.84 55.52 4.84v61h-31.28c-30.8 0-40.41 19.12-40.41 38.73V256h68.78l-11 71.69h-57.78V501C413.31 482.38 504 379.78 504 256z"></path>
  </symbol>
  <symbol aria-hidden="true" data-prefix="fab" data-icon="apple" xmlns="http://www.w3.org/2000/svg" viewBox="0 0 384 512" id="apple">
    <path fill="currentColor" d="M318.7 268.7c-.2-36.7 16.4-64.4 50-84.8-18.8-26.9-47.2-41.7-84.7-44.6-35.5-2.8-74.3 20.7-88.5 20.7-15 0-49.4-19.7-76.4-19.7C63.3 141.2 4 184.8 4 273.5q0 39.3 14.4 81.2c12.8 36.7 59 126.7 107.2 125.2 25.2-.6 43-17.9 75.8-17.9 31.8 0 48.3 17.9 76.4 17.9 48.6-.7 90.4-82.5 102.6-119.3-65.2-30.7-61.7-90-61.7-91.9zm-56.6-164.2c27.3-32.4 24.8-61.9 24-72.5-24.1 1.4-52 16.4-67.9 34.9-17.5 19.8-27.8 44.3-25.6 71.9 26.1 2 49.9-11.4 69.5-34.3z"></path>
  </symbol>
  <symbol xmlns="http://www.w3.org/2000/svg" viewBox="0 0 624.45 614.164" id="team">
    <path d="M454.81 114.114a554.594 554.594 0 01-4.83 71.29c-.11.83-.23 1.66-.34 2.49H226.36c-.66-.82-1.31-1.65-1.94-2.49-2.1-2.78-4.07-5.64-5.88-8.6-8.7-14.26-12.74-30.99-8.85-42.57l.07-.18a20.282 20.282 0 013.92-6.9c8.96-10.2 27.2-8.61 43.79-.51-14.93-16.16-26.86-36.59-27.86-54.88-.98-17.84 8.28-30.64 18.34-41.53.33-.36.66-.71.99-1.06.16-.18.33-.35.49-.53 7.85-8.3 17.01-16.49 30.34-15.58 14.62 1 30.89 13.15 42.33 27.35 11.44 14.19 19.08 30.34 26.82 46.1 7.75 15.75 16.13 31.9 28.5 45.33-16.77-20.97-30.33-44.86-35.42-68.14s-.85-45.69 13.93-56.75A34.713 34.713 0 01371.1.734c.64-.11 1.29-.2 1.95-.28 13.73-1.64 30.16 3.02 44.18 14.3 15.44 12.42 26.2 30.9 31.6 48.47 5.4 17.57 6.06 34.51 5.98 50.89z" fill="#f2f2f2"></path>
    <path d="M309.14 187.894h-4.27q-2.04-1.26-4.1-2.49c-.85-.53-1.71-1.04-2.57-1.56q-21.315-12.855-42.89-24.65-21.555-11.805-43.32-22.51a1.79 1.79 0 01-1.04-2.04.516.516 0 01.07-.15c.2-.38.65-.54 1.31-.22 1.78.88 3.57 1.76 5.35 2.66q21.825 10.89 43.47 22.88 21.63 11.985 43.02 25.04c.3.18.6.37.9.55 1.36.83 2.71 1.66 4.07 2.49zm55.05 0h-2.64c-.6-.83-1.19-1.66-1.79-2.49q-21.15-29.31-42.29-58.62-34.62-47.985-69.22-95.97a1.7 1.7 0 01-.3-.58c-.2-.71.32-1.13.99-1.06a2.006 2.006 0 011.4.88q19.41 26.91 38.81 53.8 34.44 47.745 68.87 95.48c1.46 2.02 2.92 4.05 4.38 6.07.6.83 1.2 1.66 1.79 2.49zm58.73-15.66c-.11 4.45-.38 8.83-.74 13.17l-.21 2.49h-2.77c.08-.83.16-1.66.23-2.49.55-6.27.93-12.61.95-19.12a266.656 266.656 0 00-5.55-53.72 334.665 334.665 0 00-16.57-55.75 383.492 383.492 0 00-26.91-55.1 1.476 1.476 0 01-.25-.98c.11-.79 1.16-1.03 1.95-.28a2.293 2.293 0 01.4.5q1.935 3.285 3.8 6.59a383.227 383.227 0 0125.77 55.3 333.082 333.082 0 0115.47 55.84 263.074 263.074 0 014.43 53.55z" fill="#fff"></path>
    <path d="M615.72 185.404h-607a8.728 8.728 0 00-8.72 8.72v411.32a8.728 8.728 0 008.72 8.72h607a8.712 8.712 0 006.63-3.06 2.046 2.046 0 00.19-.24 8.167 8.167 0 001.25-2.11 8.507 8.507 0 00.66-3.31v-411.32a8.73 8.73 0 00-8.73-8.72zm6.24 420.04a6.175 6.175 0 01-1.03 3.42 6.446 6.446 0 01-2.36 2.12 6.184 6.184 0 01-2.85.69h-607a6.238 6.238 0 01-6.23-6.23v-411.32a6.238 6.238 0 016.23-6.23h607a6.24 6.24 0 016.24 6.23z" fill="#3f3d56"></path>
    <path fill="#3f3d56" d="M1.243 220.353H623.2v2.493H1.243z"></path>
    <circle cx="22.432" cy="204.1" r="7.478" fill="#3f3d56"></circle>
    <circle cx="43.932" cy="204.1" r="7.478" fill="#3f3d56"></circle>
    <circle cx="65.433" cy="204.1" r="7.478" fill="#3f3d56"></circle>
    <path d="M276.977 432.274c-7.48-4.869-11.2-16.184-9.367-26.532s8.735-19.26 17.008-23.104a26.65 26.65 0 0125.228 1.793c7.587 4.64 18.317 7.18 21.92 16.462 2.769 7.133-.743 21.618-4.47 28.546-3.22 5.988-9.34 8.727-15.091 9.918a45.34 45.34 0 01-36.669-8.461z" fill="#2f2e41"></path>
    <path fill="#ffb8b8" d="M273.076 487.234l-5.98 10.31-.79 1.36-1.15 2h-17.63l1.19-2 3.08-5.19 7.18-12.12 8.13 3.25 5.97 2.39z"></path>
    <path d="M246.206 500.904l-3.22-2-.4-.25 20.21-36.83a13.73 13.73 0 018.25-6.62 13.575 13.575 0 016.78-.25 13.354 13.354 0 013.74 1.4 13.089 13.089 0 011.39.88 13.349 13.349 0 014.1 4.62 13.817 13.817 0 01-.42 13.95l-7.79 12.45-6.66 10.65-1.25 2h-24.73z" fill="#2f2e41"></path>
    <circle cx="298.13" cy="420.784" r="24.561" fill="#ffb8b8"></circle>
    <path d="M322.786 500.904h-55.21l.25-.71q-.21-.645-.39-1.29c-.13-.45-.24-.91-.34-1.36a30.194 30.194 0 01.01-12.7c3.05-14.98 15.22-27.15 15.22-27.15.21-.16.42-.31.63-.46a27.785 27.785 0 015.85-3.28c9.04-3.75 18.52-2.24 24.89-.3a49.67 49.67 0 016.49 2.47c.74.35 1.14.57 1.14.57l.63 19.21.76 23z" fill="#ff6373"></path>
    <path d="M348.326 498.904l-4.22-21.46-4.26-21.64a4.52 4.52 0 00-3.65-3.57l-8.92-1.54-8.3-1.43a4.46 4.46 0 00-4.31 1.65 4.41 4.41 0 00-.97 2.74 4.52 4.52 0 00.37 1.79c4.33 10.1 4.41 26.09 3.31 43.46-.05.66-.09 1.33-.14 2h31.49zm-59.52-44.95a4.527 4.527 0 00-7.15-2.48l-3.83 3.48-15.68 14.28a4.345 4.345 0 00-1.12 1.59 995.68 995.68 0 00-9.23 22.89l-2.01 5.19c-.24.66-.5 1.33-.76 2h25.84c.21-.67.42-1.34.63-2 1.15-3.63 2.27-7.19 3.35-10.65 3.16-10.05 6.01-19.18 8.21-26.4q.915-3 1.67-5.54a4.528 4.528 0 00.08-2.36z" fill="#2f2e41"></path>
    <path fill="#ffb8b8" d="M354.126 500.904h1.67l-.23-.56-.61-1.44-9.41-22.33-1.44.87-11.56 6.99 5.93 14.47.82 2h14.83z"></path>
    <path d="M344.586 458.864a13.821 13.821 0 00-17.31-8.17 12.41 12.41 0 00-1.27.5 13.647 13.647 0 00-5.82 4.93 13.205 13.205 0 00-1.43 2.77 13.742 13.742 0 00.31 10.57l2.89 6.44 10.34 23 .9 2h20.93l1.44-.56 3.74-1.44.52-.2zm-27.166-66.289a4.063 4.063 0 004.622-1.754 5.85 5.85 0 00.339-5.143 10.736 10.736 0 00-3.196-4.214 12.406 12.406 0 00-5.617-2.909 7.461 7.461 0 00-6.053 1.33 5.377 5.377 0 00-1.826 5.723c.636 1.845 2.359 3.08 4.079 4a27.094 27.094 0 0011.038 3.138zm4.778 27.475c-3.948.545-3.441-1.465-5.023-5.124s-3.698-8.002-7.667-8.373c-3.253-.303-5.932 2.297-8.567 4.227-4.696 3.442-11.026 5.126-16.47 3.062s-9.226-8.553-7.16-13.996a11.943 11.943 0 016.906-6.53 24.028 24.028 0 019.622-1.336 49.647 49.647 0 0120.864 5.34c4.472 2.273 8.826 5.524 10.523 10.245s2.813 11.354-2.038 12.631z" fill="#2f2e41"></path>
    <path d="M315.402 379.591c-1.952-3.397-.34-8.059 2.853-10.329s7.477-2.493 11.288-1.582a22.166 22.166 0 0115.9 15.411c1.617 5.941.656 12.323 2.025 18.326a24.049 24.049 0 0030.223 17.725c4.102-1.204 8.27-4.133 8.674-8.389a23.518 23.518 0 01-13.928 23.549c-5.285 2.205-11.18 2.348-16.905 2.201-3.73-.095-7.546-.32-10.988-1.763a19.667 19.667 0 01-10.333-11.204 31.129 31.129 0 01-1.376-15.435c.564-4.029 1.684-7.977 1.997-12.032s-.28-8.386-2.78-11.594-7.277-4.847-10.831-2.87c-1.429.794-2.581 2.092-4.133 2.605s-3.752-.388-3.611-2.017z" fill="#2f2e41"></path>
    <path d="M483.006 500.904l.19-2 5.64-58.68a35.917 35.917 0 015.93-3.77c11.61-5.85 22.81-3.05 28.87-.63a31.591 31.591 0 014.64 2.27l3.3 60.81.11 2z" fill="#ff6373"></path>
    <circle cx="509.419" cy="400.045" r="24.561" fill="#ffb8b8"></circle>
    <path d="M529.347 415.021a13.37 13.37 0 00-10.145-22.564c-3.397.114-6.597 1.504-9.838 2.524a32.535 32.535 0 01-15.285 1.376 20.41 20.41 0 01-13.017-7.686c-3.038-4.176-3.986-9.969-1.84-14.667 2.48-5.423 8.268-8.412 13.715-10.84a25.063 25.063 0 016.962-2.287 8.929 8.929 0 016.926 1.746c1.53 1.316 2.428 3.295 4.093 4.435 1.875 1.284 4.31 1.25 6.57 1.477a25.205 25.205 0 0112.209 45.54zm-30.921 31.593l-3.66-10.16-.228-.634a2.104 2.104 0 00-3.147-1.036l-4.155 2.77s-26.65 0-28.79 15.99c-.03.25-.07.53-.1.83a.155.155 0 01-.01.04c-.27 1.05-5.3 20.49-9.62 44.49-.12.66-.24 1.33-.36 2h57.91c1.884-24.11.83-46.525-7.84-54.29zm69.08 52.29c-3.16-24.62-7.68-44.53-7.68-44.53-.04-.3-.08-.58-.11-.83-2.13-15.99-28.78-15.99-28.78-15.99l-4.153-2.769a2.104 2.104 0 00-3.147 1.039l-3.89 10.79c-8.67 7.765-9.724 30.18-7.84 54.289h55.85c-.08-.67-.17-1.34-.25-2z" fill="#2f2e41"></path>
    <path d="M98.426 442.844l-5.94 56.06-.21 2h-16.07c.19-.65.38-1.32.58-2 4.56-15.64 10.77-38.47 10.1-44.52-1.05-9.44 6.3-12.59 6.3-12.59l.46.09z" fill="#ff6373"></path>
    <circle cx="124.343" cy="400.979" r="24.561" fill="#a0616a"></circle>
    <path d="M156.136 489.004a40.266 40.266 0 00-3.03 7.16c-.29.88-.57 1.8-.83 2.74-.19.65-.36 1.32-.53 2h-64.78c.09-.66.17-1.33.26-2 3.31-26.15 5.99-52.69 6.42-57.02l.06-.62c38.82-20.46 67.15 6.3 67.15 6.3s.04.19.1.56c.62 3.74 3.78 25.58-4.82 40.88z" fill="#ff6373"></path>
    <path d="M153.106 496.164l-4.32-9.26 1.05-36.72 11.12-2.06.39-.07a29.445 29.445 0 0112.62 14.72c2.16 5.4 6.27 21.64 9.74 36.13.16.67.32 1.34.48 2h-28.87l-.93-2z" fill="#ff6373"></path>
    <path d="M192.616 335.904H50.596a11.504 11.504 0 00-11.49 11.49v142.02a11.504 11.504 0 0011.49 11.49h142.02a11.497 11.497 0 0011.49-11.49v-142.02a11.497 11.497 0 00-11.49-11.49zm9.49 153.51a9.498 9.498 0 01-9.49 9.49H50.596a9.505 9.505 0 01-9.49-9.49v-142.02a9.505 9.505 0 019.49-9.49h142.02a9.498 9.498 0 019.49 9.49zm-109.62 9.49l-.21 2h59.47c.17-.68.34-1.35.53-2zm290.74-163h-142.02a11.504 11.504 0 00-11.49 11.49v142.02a11.504 11.504 0 0011.49 11.49h142.02a11.497 11.497 0 0011.49-11.49v-142.02a11.497 11.497 0 00-11.49-11.49zm9.49 153.51a9.498 9.498 0 01-9.49 9.49h-142.02a9.505 9.505 0 01-9.49-9.49v-142.02a9.505 9.505 0 019.49-9.49h142.02a9.498 9.498 0 019.49 9.49zm-125.28 9.49q.18.645.39 1.29l-.25.71h49.66c.05-.67.09-1.34.14-2zm306.41-163h-142.02a11.497 11.497 0 00-11.49 11.49v142.02a11.497 11.497 0 0011.49 11.49h142.02a11.504 11.504 0 0011.49-11.49v-142.02a11.504 11.504 0 00-11.49-11.49zm9.49 153.51a9.504 9.504 0 01-9.49 9.49h-142.02a9.498 9.498 0 01-9.49-9.49v-142.02a9.498 9.498 0 019.49-9.49h142.02a9.504 9.504 0 019.49 9.49zm-76.92 9.49l-.15 2h43.09c.08-.66.17-1.33.25-2z" fill="#3f3d56"></path>
    <path d="M477.221 558.904h-330a8 8 0 110-16h330a8 8 0 110 16z" fill="#ccc"></path>
    <path d="M384.721 293.904h-145a8 8 0 010-16h145a8 8 0 010 16z" fill="#ff6373"></path>
    <path d="M136.09 422.378a4.853 4.853 0 006.347.406c5.788-4.29 10.87-9.632 13.877-16.146 3.446-7.465 3.83-16.626-.324-23.72-3.512-5.998-9.715-9.869-15.896-13.047a28.27 28.27 0 00-7.674-2.957 10.937 10.937 0 00-7.951 1.283 6.868 6.868 0 00-3.1 7.09 25.847 25.847 0 00-11.033-7.405 14.267 14.267 0 00-8.425-.61c-3.923 1.112-6.786 4.597-8.353 8.361a16.724 16.724 0 00-1.262 9.125 11.147 11.147 0 004.87 7.635c3.244 2.006 7.381 1.862 11.106 1.042s7.33-2.246 11.126-2.606 8.024.586 10.335 3.62c1.627 2.137 2.045 4.928 2.41 7.589l1.9 13.84a16.88 16.88 0 001.51 5.782 3.333 3.333 0 00.538.718z" fill="#2f2e41"></path>
  </symbol>
  <symbol xmlns="http://www.w3.org/2000/svg" viewBox="0 0 826.681 573.951" id="Selecting">
    <circle cx="93.108" cy="55.964" r="4.354" fill="#fff"></circle>
    <circle cx="109.633" cy="55.964" r="4.354" fill="#fff"></circle>
    <circle cx="126.158" cy="55.964" r="4.354" fill="#fff"></circle>
    <path fill="#fff" d="M82.529 66.193h552.899v3.073H82.529z"></path>
    <path fill="#e6e6e6" d="M.271.36h635.631v407.086H.271z"></path>
    <path fill="#6c63ff" d="M0 0h635.631v27.004H0z"></path>
    <path fill="#fff" d="M18.972 48.785h599.28V203.97H18.972zm.379 180.686h599.28v155.185H19.351z"></path>
    <path d="M221.34 83.115h324.331V97.57H221.34zm0 36.137h115.639v14.455H221.34zm0 36.137h230.375v14.455H221.34z" fill="#e6e6e6"></path>
    <path d="M196.947 306.269a53.91 53.91 0 01-8.813 29.627 52.688 52.688 0 01-3.965 5.325 54.427 54.427 0 01-11.617 10.322q-1.773 1.175-3.645 2.2a53.739 53.739 0 01-21.057 6.485 52.65 52.65 0 01-5.111.242 53.985 53.985 0 01-13.988-1.829 51.938 51.938 0 01-7.567-2.627q-1.879-.812-3.673-1.765a53.393 53.393 0 01-8.165-5.289q-1.783-1.388-3.438-2.926a54.2 54.2 0 1191.039-39.764z" fill="#6c63ff"></path>
    <g fill="#fff">
      <path d="M139.42 280.966h6.645v50.592h-6.645z"></path>
      <path d="M117.446 302.94h50.592v6.645h-50.592z"></path>
    </g>
    <path d="M213.209 263.801H537.54v14.455H213.209zm0 36.137h115.639v14.455H213.209zm0 36.137h230.375v14.455H213.209z" fill="#e6e6e6"></path>
    <circle cx="42.039" cy="13.433" r="4.467" fill="#fff"></circle>
    <circle cx="58.995" cy="13.433" r="4.467" fill="#fff"></circle>
    <circle cx="25.039" cy="13.433" r="4.467" fill="#fff"></circle>
    <path d="M175.238 169.971a92.633 92.633 0 00-14.78-6.22l-.65-7.19-26.36-2.84-3.35 9.19-9.46 3.55a4.605 4.605 0 00-.96.5h-.01a4.687 4.687 0 00-2 3.12 4.792 4.792 0 00.07 1.88l.5 2.05c.72.43 1.46.84 2.2 1.23l.47.24c1.08.56 2.18 1.09 3.31 1.58.23.1.48.2.71.3.02.01.03.01.05.02.53.22 1.06.43 1.6.63a52.557 52.557 0 005.42 1.74 55.736 55.736 0 0014.37 1.88c1.77 0 3.52-.08 5.25-.25a55.514 55.514 0 0011.64-2.35c.01 0 .02-.01.03-.01a54.634 54.634 0 006.99-2.77c.01-.01.03-.01.04-.02.51-.24 1-.5 1.5-.75l.24-.12c.4-.21.8-.42 1.2-.64 1-.55 1.98-1.13 2.95-1.75.27-.16.53-.33.8-.51.38-.25.76-.51 1.13-.78-.93-.6-1.9-1.17-2.9-1.71z" fill="#3f3d56"></path>
    <path d="M125.768 174.401l-1.65-7.45h-4.31a1.031 1.031 0 00-.13.01h-.01a9.34 9.34 0 00-4.34 1.5 9.612 9.612 0 00-2.32 2.08c1.28.97 2.61 1.87 3.98 2.73l.06.03c.39.24.79.48 1.19.71.72.43 1.46.84 2.2 1.23l.47.24c1.08.56 2.18 1.09 3.31 1.58.23.1.48.2.71.3.02.01.03.01.05.02.53.22 1.06.43 1.6.63z" fill="#3f3d56"></path>
    <circle cx="145.594" cy="130.191" r="18.985" fill="#ffb8b8"></circle>
    <path d="M132.848 120.944c1.965 2.326 5.29 2.982 8.359 3.251a78.73 78.73 0 0021.38-1.746c.434 4.212-.75 8.754 1.73 12.219a56.723 56.723 0 002.016-12.86 12.308 12.308 0 00-.713-5.507 5.065 5.065 0 00-4.315-3.18 10.815 10.815 0 014.824-2.063l-6.028-3.03 1.548-1.589-10.913-.668 3.16-2.008a68.541 68.541 0 00-14.359-.453c-2.224.164-4.549.477-6.35 1.765s-2.844 3.85-1.725 5.742a8.336 8.336 0 00-6.353 5.04 13.458 13.458 0 00-.483 6.47 45.854 45.854 0 002.405 10.17z" fill="#2f2e41"></path>
    <path d="M198.978 109.611a55.71 55.71 0 10-96.27 52.92c.5.63 1.02 1.26 1.55 1.87.04.04.07.08.11.12a54.035 54.035 0 004.15 4.28c.38.35.78.71 1.18 1.05.76.68 1.54 1.33 2.35 1.95.32.25.63.5.96.74 1.28.97 2.61 1.87 3.98 2.73l.06.03c.39.24.79.48 1.19.71.72.43 1.46.84 2.2 1.23l.47.24c1.08.56 2.18 1.09 3.31 1.58.23.1.48.2.71.3.02.01.03.01.05.02.53.22 1.06.43 1.6.63a52.557 52.557 0 005.42 1.74 55.736 55.736 0 0014.37 1.88c1.77 0 3.52-.08 5.25-.25a55.514 55.514 0 0011.64-2.35c.01 0 .02-.01.03-.01a54.634 54.634 0 006.99-2.77c.01-.01.03-.01.04-.02.51-.24 1-.5 1.5-.75l.24-.12c.4-.21.8-.42 1.2-.64 1-.55 1.98-1.13 2.95-1.75.27-.16.53-.33.8-.51.38-.25.76-.51 1.13-.78.49-.34.98-.69 1.46-1.05.15-.11.31-.22.46-.34a55.69 55.69 0 0018.92-62.68zm-20.76 60.25c-.33.26-.67.51-1.01.74-.33.25-.66.49-1 .71-.29.21-.58.41-.88.6l-.09.06c-.22.15-.44.29-.66.43q-1.245.78-2.52 1.5l-.27.15c-.38.21-.76.41-1.14.61-.05.03-.11.05-.16.08l-.06.03c-.48.25-.97.49-1.46.72a49.05 49.05 0 01-5.83 2.36c-.26.09-.52.18-.78.26a52.454 52.454 0 01-11.02 2.24c-1.64.15-3.3.23-4.97.23a51.95 51.95 0 01-13.59-1.78 49.382 49.382 0 01-6.67-2.26c-.11-.05-.23-.09-.34-.14-.12-.05-.23-.09-.34-.14-.12-.05-.23-.1-.35-.16-.94-.41-1.87-.86-2.78-1.33l-.44-.23c-1.11-.58-2.2-1.2-3.26-1.86-.31-.19-.63-.39-.93-.6-.08-.05-.15-.1-.23-.15-.71-.47-1.42-.96-2.11-1.47-.47-.35-.94-.7-1.4-1.06-.77-.58-1.51-1.2-2.23-1.84-.38-.32-.75-.67-1.11-1a50.81 50.81 0 01-4.02-4.16c-.42-.48-.83-.96-1.22-1.46a3.807 3.807 0 01-.25-.31 52.66 52.66 0 1173.12 9.23z" fill="#3f3d56"></path>
    <path d="M673.068 376.971a55.71 55.71 0 10-96.27 52.92c.5.63 1.02 1.26 1.55 1.87.04.04.07.08.11.12a54.137 54.137 0 004.15 4.28 40 40 0 001.18 1.05c.76.68 1.54 1.33 2.35 1.95a54.775 54.775 0 004.94 3.47l.06.03c1.11.69 2.24 1.33 3.39 1.94l.47.24c1.08.56 2.18 1.09 3.31 1.58.23.1.48.2.71.3.02.01.03.01.05.02a54.116 54.116 0 007.02 2.37 55.732 55.732 0 0014.37 1.88c1.77 0 3.52-.08 5.25-.25a55.508 55.508 0 0011.64-2.35c.01 0 .02-.01.03-.01a54.606 54.606 0 006.99-2.77c.01-.01.03-.01.04-.02.51-.24 1-.5 1.5-.75l.24-.12c.4-.21.8-.42 1.2-.64 1-.55 1.98-1.13 2.95-1.75.27-.16.53-.33.8-.51.88-.58 1.75-1.2 2.59-1.83.15-.11.31-.22.46-.34a55.692 55.692 0 0018.92-62.68z" fill="#fff"></path>
    <circle cx="638.842" cy="409.897" r="8.349" fill="#2f2e41"></circle>
    <path d="M641.168 401.778a8.35 8.35 0 017.35 12.312 8.347 8.347 0 10-13.868-9.172 8.33 8.33 0 016.519-3.14z" fill="#2f2e41"></path>
    <circle cx="623.24" cy="385.353" r="24.526" fill="#2f2e41"></circle>
    <path d="M603.99 370.136a24.522 24.522 0 0133.99-2.572c-.2-.191-.4-.383-.606-.568a24.526 24.526 0 00-32.73 36.535l.14.125c.208.185.422.36.635.537a24.522 24.522 0 01-1.427-34.057z" fill="#2f2e41"></path>
    <circle cx="623.032" cy="393.875" r="15.796" fill="#a0616a"></circle>
    <path d="M651.298 435.031v5.3c-.97.62-1.95 1.2-2.95 1.75-.4.22-.8.43-1.2.64l-.24.12c-.5.25-.99.51-1.5.75-.01.01-.03.01-.04.02a54.606 54.606 0 01-6.99 2.77c-.01 0-.02.01-.03.01a55.508 55.508 0 01-11.64 2.35c-1.73.17-3.48.25-5.25.25a55.732 55.732 0 01-14.37-1.88 54.116 54.116 0 01-7.02-2.37c-.02-.01-.03-.01-.05-.02-.23-.1-.48-.2-.71-.3a52.95 52.95 0 01-3.31-1.58l-.47-.24c-1.15-.61-2.28-1.25-3.39-1.94l-.06-.03a54.775 54.775 0 01-4.94-3.47 39.88 39.88 0 01-2.35-1.95 40 40 0 01-1.18-1.05 54.137 54.137 0 01-4.15-4.28 20.23 20.23 0 01.76-3.07l.01-.01a4.489 4.489 0 01.21-.5 3.988 3.988 0 01.19-.42c1.79-3.35 5.03-4.18 9.05-4.36 2.27-.1 4.78.01 7.43-.02 1.4-.01 2.85-.06 4.3-.19 9.15-.83 7.49-6.23 7.9-9.14.41-2.82 2.95-.38 3.12-.22l.01.01a32.271 32.271 0 0016.6 2.91 32.3 32.3 0 012.94-.22c2.58-.03 2.02.71 1.13 1.32a11.183 11.183 0 01-1.35.76s-.41 2.5-.83 6.24c-.4 3.58 6.46 5.26 7.03 5.39a.06.06 0 00.04.01 13.773 13.773 0 017.61.2h.01a9.018 9.018 0 015.68 6.46z" fill="#6c63ff"></path>
    <path d="M600.168 441.461c0 .74-.02 1.45-.05 2.12-.01.4-.03.79-.05 1.16-.02-.01-.03-.01-.05-.02-.23-.1-.48-.2-.71-.3a52.95 52.95 0 01-3.31-1.58l-.47-.24c-1.15-.61-2.28-1.25-3.39-1.94.03-.35.08-.7.13-1.05.11-.77.2-1.55.26-2.32a32.184 32.184 0 00-2.85-15.76v-.01c-.2-.4-.32-.62-.32-.62s2.91-2.5 7.06 0a2.498 2.498 0 01.69.6c2.5 2.95 3.18 12.87 3.06 19.96zm45.41-1.36c-.04 1.12-.1 2.29-.17 3.48v.01c-.01.01-.03.01-.04.02a54.606 54.606 0 01-6.99 2.77c-.01 0-.02.01-.03.01l-.11-2.81-.01-.37-.53-13.68a2.295 2.295 0 012.29-2.4h5.07c.25 0 .43.51.55 1.43v.01a86.661 86.661 0 01-.03 11.53zm-36.056-65.971v15.8h3.658l4.655-4.988-.623 4.988h16.17l-1-4.988 2 4.988h2.578v-15.8z" fill="#2f2e41"></path>
    <ellipse cx="607.028" cy="390.55" rx="1.247" ry="2.286" fill="#a0616a"></ellipse>
    <ellipse cx="639.037" cy="390.55" rx="1.247" ry="2.286" fill="#a0616a"></ellipse>
    <path d="M654.688 437.991c-.84.63-1.71 1.25-2.59 1.83-.27.18-.53.35-.8.51-.97.62-1.95 1.2-2.95 1.75-.4.22-.8.43-1.2.64v-11.02s1.6 1.28 4.15 3.41c.32.27.65.55 1 .85.74.62 1.54 1.3 2.39 2.03z" fill="#6c63ff"></path>
    <path d="M673.068 376.971a55.71 55.71 0 10-96.27 52.92c.5.63 1.02 1.26 1.55 1.87.04.04.07.08.11.12a54.137 54.137 0 004.15 4.28 40 40 0 001.18 1.05c.76.68 1.54 1.33 2.35 1.95a54.775 54.775 0 004.94 3.47l.06.03c1.11.69 2.24 1.33 3.39 1.94l.47.24c1.08.56 2.18 1.09 3.31 1.58.23.1.48.2.71.3.02.01.03.01.05.02a54.116 54.116 0 007.02 2.37 55.732 55.732 0 0014.37 1.88c1.77 0 3.52-.08 5.25-.25a55.508 55.508 0 0011.64-2.35c.01 0 .02-.01.03-.01a54.606 54.606 0 006.99-2.77c.01-.01.03-.01.04-.02.51-.24 1-.5 1.5-.75l.24-.12c.4-.21.8-.42 1.2-.64 1-.55 1.98-1.13 2.95-1.75.27-.16.53-.33.8-.51.88-.58 1.75-1.2 2.59-1.83.15-.11.31-.22.46-.34a55.692 55.692 0 0018.92-62.68zm-20.76 60.25c-.33.26-.67.51-1.01.74-.33.25-.66.49-1 .71-.29.21-.58.41-.88.6-.25.17-.5.33-.75.49q-1.245.78-2.52 1.5l-.27.15c-.38.21-.76.41-1.14.61-.05.03-.11.05-.16.08l-.06.03c-.48.25-.97.49-1.46.72a49.028 49.028 0 01-5.83 2.36c-.26.09-.52.18-.78.26a52.456 52.456 0 01-11.02 2.24c-1.64.15-3.3.23-4.97.23a51.952 51.952 0 01-13.59-1.78 49.391 49.391 0 01-6.67-2.26c-.23-.09-.46-.19-.68-.28-.12-.05-.23-.1-.35-.16-.94-.41-1.87-.86-2.78-1.33l-.44-.23c-1.11-.58-2.2-1.2-3.26-1.86-.39-.24-.78-.49-1.16-.75a53.71 53.71 0 01-3.51-2.53c-.77-.58-1.51-1.2-2.23-1.84-.38-.32-.75-.67-1.11-1a50.883 50.883 0 01-4.02-4.16c-.42-.48-.83-.96-1.22-1.46a3.8 3.8 0 01-.25-.31 52.66 52.66 0 1173.12 9.23z" fill="#3f3d56"></path>
    <path d="M669.931 372.603a10.056 10.056 0 005.277-14.488l23.36-27.043-18.415-2.397-19.36 26.048a10.11 10.11 0 009.138 17.88zm131.664 5.715a10.056 10.056 0 00-2.362-15.238l7.425-34.955-17.288 6.78-4.4 32.154a10.11 10.11 0 0016.625 11.259zM717.931 560.49l-12.26-.001-5.832-47.288 18.094.001-.002 47.288z" fill="#ffb8b8"></path>
    <path d="M721.058 572.374l-39.53-.001v-.5a15.386 15.386 0 0115.386-15.387l24.144.001z" fill="#2f2e41"></path>
    <path fill="#ffb8b8" d="M777.931 560.49l-12.26-.001-5.832-47.288 18.094.001-.002 47.288z"></path>
    <path d="M781.058 572.374l-39.53-.001v-.5a15.386 15.386 0 0115.386-15.387l24.144.001zm-61.85-36.576l-17.354-.695a4.514 4.514 0 01-4.318-4.633l4.89-160.38.319-.115c30.416-11.003 55.578-10.17 76.926 2.54l.238.143 2.93 156.202a4.5 4.5 0 01-4.5 4.585h-14.634a4.51 4.51 0 01-4.416-3.632l-19.935-101.409a1.5 1.5 0 00-2.96.11l-12.539 103.33a4.526 4.526 0 01-4.469 3.957l-.178-.003z" fill="#2f2e41"></path>
    <circle cx="736.092" cy="204.882" r="24.561" fill="#ffb8b8"></circle>
    <path d="M678.232 353.081a4.506 4.506 0 01-2.091-1.685l-4.746-7.102a4.515 4.515 0 01.12-5.17l19.131-25.967 11.986-57.511a14.497 14.497 0 1127.017 10.52l-5.665 36.601a46.374 46.374 0 01-16.024 28.441l-25.185 21.135a4.505 4.505 0 01-3.528 1.007 4.455 4.455 0 01-1.015-.269zm122.315 2.606a4.506 4.506 0 01-2.683.116l-8.255-2.195a4.515 4.515 0 01-3.326-3.959l-2.797-32.133-29.001-51.089a14.497 14.497 0 1127.23-9.954l19.931 31.217a46.373 46.373 0 016.764 31.936l-4.94 32.504a4.505 4.505 0 01-1.983 3.088 4.455 4.455 0 01-.94.47z" fill="#3f3d56"></path>
    <path d="M709.227 248.5a41.822 41.822 0 0133.537-13.56q.616.038 1.227.086a41.734 41.734 0 0130.16 16.646 42.362 42.362 0 017.525 34.145 132.361 132.361 0 003.497 67.876l6.589 20.459a4.499 4.499 0 01-4.042 5.872l-33.685 1.81-8.62-14.889v15.353l-40.941 2.201a4.068 4.068 0 01-.243.007 4.5 4.5 0 01-4.484-4.861l4.627-57.382-5.804-38.973a42.09 42.09 0 0110.657-34.79z" fill="#3f3d56"></path>
    <path d="M753.162 228.33c-2.274 1.308-11.263 2.175-11.903-.37l-.014-.055c-.445-1.864-.075-3.81.053-5.723s-.06-4.013-1.362-5.42c-2.428-2.62-6.748-1.231-10.259-1.894a8.664 8.664 0 01-6.74-9.253c.05-.397.129-.795.217-1.193a6.673 6.673 0 00-6.927-8.081c-3.548.203-7.378 1.278-10.314-1.35-2.27-2.033-2.824-7.323-1.826-10.202 1.676-4.838 12.414-7.37 17.102-8.763a40.62 40.62 0 0134.43 5.65c2.961 2.086 5.727 4.709 6.989 8.105s.653 7.68-2.193 9.922a18.332 18.332 0 014.246 17.806c-1.405 4.53-8.114 8.872-11.5 10.82z" fill="#2f2e41"></path>
    <path d="M825.681 573.951h-213a1 1 0 010-2h213a1 1 0 010 2z" fill="#ccc"></path>
  </symbol>
  <symbol xmlns="http://www.w3.org/2000/svg" viewBox="0 0 711.188 669.683" id="feeling">
    <title>feeling_proud</title>
    <path fill="#e6e6e6" d="M516.326 380.018v184.995l30.944 50.43 2.355 3.836h122.097l2.467-239.261H516.326z"></path>
    <path opacity=".1" d="M516.326 380.018v184.995l30.944 50.43 1.899-235.425h-32.843z"></path>
    <path fill="#e6e6e6" d="M221.566 375.084V560.08l-30.944 50.43-2.355 3.835H66.17l-2.467-239.261h157.863z"></path>
    <path opacity=".1" d="M221.566 375.084V560.08l-30.944 50.43-1.899-235.426h32.843z"></path>
    <path fill="#e6e6e6" d="M711.188 371.385v11.099H47.67v-16.033l61.665-32.066h547.588l54.265 37z"></path>
    <path opacity=".1" d="M711.188 371.385v11.099H47.67v-16.033l663.518 4.934z"></path>
    <path fill="#3f3d56" d="M142.635 426.883h-29.6l-12.333-8.633h55.499l-13.566 8.633zm0 35.766h-29.6l-12.333-8.633h55.499l-13.566 8.633zm0 50.566h-29.6l-12.333-8.634h55.499l-13.566 8.634zm0 50.565h-29.6l-12.333-8.633h55.499l-13.566 8.633zm452.622-131.964h29.6l12.333-8.633h-55.499l13.566 8.633zm0 35.766h29.6l12.333-8.633h-55.499l13.566 8.633zm0 50.566h29.6l12.333-8.633h-55.499l13.566 8.633zm0 50.565h29.6l12.333-8.633h-55.499l13.566 8.633zm20.157-448.257H366.228a9.423 9.423 0 00-9.423 9.424v167.858a9.423 9.423 0 009.423 9.424h94.593l-3.544 22.626s-20.252 10.76-6.012 11.076 81.328 0 81.328 0 12.974 0-7.595-11.392l-3.334-22.31h93.75a9.423 9.423 0 009.424-9.424V129.88a9.423 9.423 0 00-9.424-9.424z"></path>
    <path fill="#f2f2f2" d="M365.823 130.424h249.996v139.871H365.823z"></path>
    <circle cx="490.821" cy="125.994" r="1.582" fill="#f2f2f2"></circle>
    <circle cx="490.821" cy="294.346" r="6.013" fill="#f2f2f2"></circle>
    <path fill="#3f3d56" d="M481.452 357.952v3.165h-170.25v-2.532l.234-.633 4.196-11.392h162.339l3.481 11.392zm65.518-3.098c-.31 1.326-1.481 2.725-4.127 4.047-9.493 4.747-28.797-1.265-28.797-1.265s-14.873-2.532-14.873-9.177a11.866 11.866 0 011.304-.776c3.991-2.111 17.225-7.322 40.69.22a9.786 9.786 0 014.46 2.924 4.667 4.667 0 011.343 4.027z"></path>
    <path d="M546.97 354.854c-11.62 4.452-21.978 4.785-32.607-2.598a23.343 23.343 0 00-13.886-4.573c3.991-2.111 17.225-7.322 40.69.22a9.786 9.786 0 014.46 2.924 4.667 4.667 0 011.343 4.027z" opacity=".1"></path>
    <ellipse cx="532.4" cy="350.99" rx="4.114" ry="1.266" fill="#f2f2f2"></ellipse>
    <path opacity=".1" d="M481.452 357.952v3.165h-170.25v-2.532l.234-.633h170.016z"></path>
    <path d="M94.661 0a8.554 8.554 0 00-4.96 1.108c-1.477 1.011-2.407 2.782-3.357 4.43A52.986 52.986 0 0171.91 21.843c-4.289 3.142-9.742 7.06-9.008 12.852a17.372 17.372 0 002.09 5.426c3.957 7.987 14.754 14.159 13.692 23.273 3.931-6.581-1.327-9.835 2.604-16.416 1.872-3.134 5.124-6.672 7.95-4.704.947.66 1.569 1.841 2.554 2.42 2.351 1.38 4.853-1.258 6.934-3.127 7.177-6.442 17.383-4.755 26.314-2.747 4.216.948 8.847 2.19 11.34 6.22 3.276 5.299-3.114 11.02-4.729 17.011a3.264 3.264 0 003.503 4.062c2.68-.264 5.854-.48 6.013-1.657 3.372.12 7.503-.262 8.947-3.772a14.762 14.762 0 00.693-4.293c.53-5.898 3.033-11.278 4.691-16.89s2.38-12.19-.419-17.167a19.864 19.864 0 00-3.666-4.456C135.533 2.512 114.657-.022 94.661 0z" fill="#2f2e41"></path>
    <path d="M82.138 74.905s3.453 28.779-9.21 31.08 11.512 41.442 11.512 41.442l57.557 6.907-13.814-46.046s-9.209-3.453-3.453-26.476-42.592-6.907-42.592-6.907zm-35.11 494.413l4.605 63.313h24.173L68.9 569.318H47.028zM224.303 449.6l3.453 52.952 26.477-11.511-10.361-43.743-19.569 2.302z" fill="#ffb8b8"></path>
    <path d="M29.761 327.58s1.151 66.766 8.058 88.637 5.756 23.023 4.605 26.476-2.303 1.151-2.303 6.907-2.302 96.695 0 104.753-6.907 21.872 0 23.023 39.139 0 40.29-6.907-9.209-9.209-4.604-13.813 11.51-98.998 11.51-98.998l16.117-65.615 29.93-34.534h63.312l19.57 75.975s-8.059 21.872-2.303 21.872 40.29 6.907 40.29-18.418-11.512-100.15-13.814-102.452 1.151-10.36-2.302-13.813-43.743-27.627-58.708-32.232-35.958-10.085-35.958-10.085zm224.472 154.252s-17.267-5.756-25.325 11.511-4.605 21.872-4.605 21.872 26.476 9.209 31.08 4.604c2.004-2.003 8.365-2.699 14.913-2.846 9.973-.224 12.627-14.333 3.208-17.619q-.422-.147-.853-.255c-9.21-2.302-18.418-17.267-18.418-17.267z" fill="#2f2e41"></path>
    <circle cx="108.038" cy="59.365" r="34.534" fill="#ffb8b8"></circle>
    <path d="M63.144 120.375s56.406 11.511 70.22-6.907 19.569 51.801 19.569 51.801l6.906 73.673-10.36 40.29s-54.103 43.743-71.37 47.196-43.743 5.756-43.743 5.756 8.058-127.776 8.058-130.078 20.72-81.73 20.72-81.73z" fill="#ff63a3"></path>
    <path d="M80.298 98.786s-12.55-7.19-16.003-.283-35.685 24.174-39.139 24.174 6.907 95.545 2.303 107.056S.983 325.277 13.645 332.184s3.453-6.907 16.116 10.36 74.824 17.267 78.277 10.36-27.627-58.707-21.871-107.055 14.964-115.114 6.906-124.323-12.775-22.74-12.775-22.74zm41.554 7.775l1.603-5.518s47.896 15.879 50.198 26.239 1.151 82.882-6.907 88.637-19.57 14.965-11.511 28.779 17.267 28.778 24.174 29.93 19.57 9.208 16.116 17.266-44.895-6.906-44.895-6.906-27.627-20.72-26.476-52.953-2.302-125.474-2.302-125.474z" fill="#2f2e41"></path>
    <path d="M162.142 242.396l-27.628 51.8s-40.29 41.442-17.267 46.046 35.686-37.987 35.686-37.987l29.93-42.592z" fill="#ffb8b8"></path>
    <path d="M96.344 9.036a7.838 7.838 0 00-4.039.783 9.413 9.413 0 00-2.732 3.131 39.773 39.773 0 01-11.75 11.524c-3.491 2.22-7.93 4.99-7.333 9.084a11.36 11.36 0 001.702 3.835 30.163 30.163 0 013.665 18.8l9.6-13.953c1.524-2.216 4.172-4.716 6.473-3.325.77.466 1.276 1.301 2.078 1.71 1.914.975 3.95-.89 5.644-2.21 5.843-4.553 14.15-3.36 21.421-1.942 3.432.67 7.202 1.549 9.231 4.397 3.372 4.733-.149 11.572 1.819 17.04a5.023 5.023 0 002.078-3.317c2.745.085 6.108-.185 7.284-2.666a9.188 9.188 0 00.563-3.035c.432-4.168 2.47-7.97 3.82-11.937s1.936-8.617-.342-12.134a14.681 14.681 0 00-2.984-3.149C129.616 10.811 112.62 9.02 96.344 9.036zm65.798 113.641l10.725 2.847s24.96 63.92 19.204 107.662-9.209 34.535-9.209 34.535-9.209-20.72-29.93-16.116zM48.623 624.263c-2.776 3.773-2.22 9.165-4.678 13.151-2.132 3.455-6.149 5.267-8.815 8.329a22.326 22.326 0 00-2.266 3.26c-2.473 4.142-4.483 9.451-2.048 13.616 1.96 3.35 6.078 4.66 9.855 5.552 4.775 1.128 9.735 2.03 14.564 1.169s9.549-3.82 11.27-8.413a32.5 32.5 0 011.206-3.4c2.617-5.153 10.827-5.209 13.506-10.33 1.875-3.584.151-7.917-1.571-11.576l-5.261-11.177c-1.746-3.71-8.824-1.576-12.514-2.465-4.812-1.16-9.786-2.436-13.248 2.284z" fill="#2f2e41"></path>
    <path d="M10.192 265.418l48.347 74.824s29.93 37.988 39.139 20.72-32.232-46.045-32.232-46.045l-31.08-57.557z" fill="#ffb8b8"></path>
    <path d="M34.366 124.98l-9.21-2.303s-18.418 5.756-23.022 29.93-1.151 120.87 4.604 122.02 28.428-16.836 32.057-13.023-7.883-15.755-4.43-26.115 0-110.51 0-110.51z" fill="#2f2e41"></path>
    <path d="M437.407 176.363h29.752v7.163h-29.752zm122.315 0h10.468v7.163h-10.468zm20.937 0h10.468v7.163h-10.468zm-103.031 0h71.075v7.163h-71.075zm-77.687 46.281h29.752v7.163h-29.752zm122.315 0h10.468v7.163h-10.468zm20.937 0h10.468v7.163h-10.468zm-103.031 0h71.075v7.163h-71.075zm82.645-30.303h29.752v7.163h-29.752zm40.221 0h29.752v7.163h-29.752zm-163.087 0h10.468v7.163h-10.468zm20.937 0h10.468v7.163h-10.468zm20.937 0h71.075v7.163h-71.075zm19.284 15.427h29.752v7.163h-29.752zm-40.221 0h29.752v7.163h-29.752zm-20.937 0h10.468v7.163h-10.468zm182.371 0h10.468v7.163h-10.468zm-81.544 0h71.075v7.163h-71.075z" fill="#ff63a3"></path>
  </symbol>
  <symbol aria-hidden="true" data-prefix="fab" data-icon="medium-m" xmlns="http://www.w3.org/2000/svg" viewBox="0 0 512 512" id="programming">
    <path fill="currentColor" d="M71.5 142.3c.6-5.9-1.7-11.8-6.1-15.8L20.3 72.1V64h140.2l108.4 237.7L364.2 64h133.7v8.1l-38.6 37c-3.3 2.5-5 6.7-4.3 10.8v272c-.7 4.1 1 8.3 4.3 10.8l37.7 37v8.1H307.3v-8.1l39.1-37.9c3.8-3.8 3.8-5 3.8-10.8V171.2L241.5 447.1h-14.7L100.4 171.2v184.9c-1.1 7.8 1.5 15.6 7 21.2l50.8 61.6v8.1h-144v-8L65 377.3c5.4-5.6 7.9-13.5 6.5-21.2V142.3z"></path>
  </symbol>
  <symbol aria-hidden="true" data-prefix="fab" data-icon="servicestack" xmlns="http://www.w3.org/2000/svg" viewBox="0 0 496 512" id="services">
    <path fill="currentColor" d="M88 216c81.7 10.2 273.7 102.3 304 232H0c99.5-8.1 184.5-137 88-232zm32-152c32.3 35.6 47.7 83.9 46.4 133.6C249.3 231.3 373.7 321.3 400 448h96C455.3 231.9 222.8 79.5 120 64z"></path>
  </symbol>
  <symbol xmlns="http://www.w3.org/2000/svg" viewBox="0 0 1041.32 554.17" id="mofabrands">
    <defs>
      <linearGradient id="a" x1="597.75" y1="725.44" x2="597.75" y2="347.69" gradientUnits="userSpaceOnUse">
        <stop offset="0" stop-color="gray" stop-opacity=".25"></stop>
        <stop offset=".54" stop-color="gray" stop-opacity=".12"></stop>
        <stop offset="1" stop-color="gray" stop-opacity=".1"></stop>
      </linearGradient>
    </defs>
    <title>programming</title>
    <path d="M961.48 438.21q-1.74 3.75-3.47 7.4-2.7 5.67-5.33 11.12c-.78 1.61-1.56 3.19-2.32 4.77-8.6 17.57-16.63 33.11-23.45 45.89a73.21 73.21 0 01-63.81 38.7l-151.65 1.65h-1.6l-13 .14-11.12.12-34.1.37h-1.38l-17.36.19h-.53l-107 1.16-95.51 1-11.11.12-69 .75h-.08l-44.75.48h-.48l-141.5 1.53-42.33.46a88.07 88.07 0 01-26.67-3.82 86.39 86.39 0 01-39.09-24.75c-18.18-20.03-31.43-43.4-40.33-68.76q-1.93-5.49-3.6-11.12c-30.81-104.15 6.75-238.52 74.35-328.44q4.25-5.64 8.64-11l.07-.08c20.79-25.52 44.1-46.84 68.93-62 44-26.91 92.75-34.49 140.7-11.9 40.57 19.12 78.45 28.11 115.17 30.55 3.71.24 7.42.42 11.11.53 84.23 2.65 163.17-27.7 255.87-47.29 3.69-.78 7.39-1.55 11.12-2.28C763 .54 836.36-6.4 923.6 8.19a189.09 189.09 0 0126.76 6.4q5.77 1.86 11.12 4c41.64 16.94 64.35 48.24 74 87.46q1.37 5.46 2.37 11.11c17.11 94.34-33 228.16-76.37 321.05z" fill="#ff63a3" opacity=".1"></path>
    <g opacity=".1" fill="#ff63a3">
      <path d="M162.9 44.09v509.62l-42.33.46a88.07 88.07 0 01-26.67-3.82V106.09h.07c20.79-25.55 44.1-46.87 68.93-62z"></path>
      <path d="M1037.9 117.17H85.26q4.25-5.64 8.64-11v-.08h941.63q1.37 5.43 2.37 11.08z"></path>
      <path d="M961.48 18.6v427h-3.47q-2.7 5.67-5.33 11.12c-.78 1.61-1.56 3.19-2.32 4.77V14.56q5.77 1.86 11.12 4.04zm-264.61-4.93v534.25l-11.12.12V15.95c3.69-.78 7.39-1.55 11.12-2.28zM429.88 63.24v487.58l-11.11.12V62.71c3.71.24 7.42.38 11.11.53z"></path>
      <path d="M958.01 445.61q-2.7 5.67-5.33 11.12H14.51q-1.93-5.49-3.6-11.12z"></path>
    </g>
    <path fill="#3f3d56" d="M211.6 265.83h19v57.66h-19zm511.33-3h19v61h-19z"></path>
    <path fill="#65617d" d="M863.1 533.65v13l-151.92 1.4-1.62.03-57.74.53-1.38.02-17.55.15h-.52l-106.98.99-175.61 1.63h-.15l-44.65.42-.48.01-198.4 1.82v-15l46.65-28 93.6-.78 2-.01.66-.01 2-.03 44.94-.37 2.01-.01.64-.01 2-.01 14.41-.12.38-.01 35.55-.3h.29l277.4-2.34 6.79-.05h.68l5.18-.05 37.65-.31 2-.03 1.85-.02h.96l11.71-.09 2.32-.03 3.11-.02 9.75-.09 15.47-.13 2-.02 3.48-.02h.65l74.71-.64 56.16 28.5z"></path>
    <path opacity=".2" d="M863.1 533.65v13l-151.92 1.4-1.62.03-57.74.53-1.38.02-17.55.15h-.52l-106.98.99-175.61 1.63h-.15l-44.65.42-.48.01-198.4 1.82v-15l46.65-28 93.6-.78 2-.01.66-.01 2-.03 44.94-.37 2.01-.01.64-.01 2-.01 14.41-.12.38-.01 35.55-.3h.29l277.4-2.34 6.79-.05h.68l5.18-.05 37.65-.31 2-.03 1.85-.02h.96l11.71-.09 2.32-.03 3.11-.02 9.75-.09 15.47-.13 2-.02 3.48-.02h.65l74.71-.64 56.16 28.5z"></path>
    <path d="M296.1 483.66v24.49a6.13 6.13 0 01-3.5 5.54 6 6 0 01-2.5.6l-34.9.74a6 6 0 01-2.7-.57 6.12 6.12 0 01-3.57-5.57v-25.23z" fill="#3f3d56"></path>
    <path d="M296.1 483.66v24.49a6.13 6.13 0 01-3.5 5.54 6 6 0 01-2.5.6l-34.9.74a6 6 0 01-2.7-.57 6.12 6.12 0 01-3.57-5.57v-25.23z" opacity=".1"></path>
    <path d="M298.1 483.66v24.49a6.13 6.13 0 01-3.5 5.54 6 6 0 01-2.5.6l-34.9.74a6 6 0 01-2.7-.57 6.12 6.12 0 01-3.57-5.57v-25.23zm382.83 0h47.17v31.5h-47.17z" fill="#3f3d56"></path>
    <path opacity=".1" d="M680.93 483.66h47.17v31.5h-47.17z"></path>
    <path fill="#3f3d56" d="M678.93 483.66h47.17v31.5h-47.17z"></path>
    <path opacity=".1" d="M230.6 265.82v5.73l-19-.49v-5.24h19z"></path>
    <path d="M355.66 104.4l-22.83 164a4.3 4.3 0 01-4.37 3.71l-182.8-4.74-3.47-.09a4.3 4.3 0 01-4.16-4.87l25.63-171.68a4.3 4.3 0 014.54-3.63l183.46 12.42a4.29 4.29 0 014 4.88z" fill="#65617d"></path>
    <path fill="#ff63a3" d="M175.93 99.16L156.6 250.49l168 5.33 20.66-146-169.33-10.66z"></path>
    <rect x="384.6" y="96.82" width="204.67" height="173.33" rx="5.33" ry="5.33" fill="#65617d"></rect>
    <path fill="#ff63a3" d="M394.26 108.49h186v144.33h-186z"></path>
    <path opacity=".1" d="M741.93 262.82v3.79l-19 .39v-4.18h19z"></path>
    <path d="M827.66 259.62a3.08 3.08 0 01-3 3.28l-187.2 3.87a3.08 3.08 0 01-3.13-2.79L618.24 96.7a3.08 3.08 0 012.92-3.37l185.78-9.24 2-.1a3.07 3.07 0 013.22 2.8z" fill="#65617d"></path>
    <path fill="#ff63a3" d="M628.93 103.16l169.67-8.34 14.33 152-168.33 4-15.67-147.66z"></path>
    <path d="M827.66 259.62a3.08 3.08 0 01-3 3.28L806.94 84.09l2-.1a3.07 3.07 0 013.22 2.8zM168.23 87.09l-22.57 180.28-3.47-.09a4.3 4.3 0 01-4.16-4.87l25.63-171.68a4.3 4.3 0 014.57-3.64zm43.37 219.32h19v17.08h-19zm86.5 177.24v4.97l-47.17 1.26v-6.23h47.17z" opacity=".1"></path>
    <path d="M381.35 312.36v168.2a4 4 0 01-3.85 3.95l-191.65 5.1h-.05a4 4 0 01-3.95-3.95v-173.3a4 4 0 013.95-3.95h191.6a4 4 0 013.95 3.95z" fill="#65617d"></path>
    <path d="M185.85 308.41v181.2h-.05a4 4 0 01-3.95-3.95v-173.3a4 4 0 013.95-3.95z" opacity=".1"></path>
    <path fill="#d4dfec" d="M194.6 319.15h177.5V467.4l-177.5 4V319.15z"></path>
    <path opacity=".1" d="M722.93 306.41h19v17.42h-19zm3.17 177.24v6.41l-47.17-1.26v-5.15h47.17z"></path>
    <path d="M788.35 312.36v173.3a4 4 0 01-4 3.95l-191.69-5.1a4 4 0 01-3.85-3.95v-168.2a4 4 0 013.95-3.95h191.6a4 4 0 013.99 3.95z" fill="#65617d"></path>
    <path d="M788.35 312.36v173.3a4 4 0 01-4 3.95v-181.2a4 4 0 014 3.95z" opacity=".1"></path>
    <path fill="#d4dfec" d="M775.6 319.15H598.1V467.4l177.5 4V319.15z"></path>
    <path d="M583.85 312.36v168.2a4 4 0 01-3.85 3.95l-191.65 5.1a4 4 0 01-4-3.95v-173.3a4 4 0 013.95-3.95h191.6a4 4 0 013.95 3.95z" fill="#65617d"></path>
    <path fill="#d4dfec" d="M397.1 319.15h177.5V467.4l-177.5 4V319.15z"></path>
    <path opacity=".1" d="M863.1 533.65v13l-151.92 1.4-1.62.03-57.74.53-1.38.02-17.55.15h-.52l-106.98.99-175.61 1.63h-.15l-44.65.42-.48.01-198.4 1.82v-15l202.51-1.33h.48l40.99-.28h.19l283.08-1.87h.29l.17-.01h.47l4.79-.03h1.46l74.49-.5 4.4-.02.98-.01 142.7-.95z"></path>
    <circle cx="487.26" cy="272.16" r="51.33" fill="#fbbebe"></circle>
    <path d="M383.74 725.09c0-.11.06-.23.1-.35 1-3.59 2.78-9.66 4.11-14.51.17-.6.33-1.19.48-1.75 1.47-5.47 4.33-18.28 5.92-26.27.56-2.81 1-5 1.09-6.1.2-1.69 3.21-8.92 6.62-17.23 2.39-5.84 5-12.22 6.91-17.6a61.38 61.38 0 002.93-9.85 5.1 5.1 0 000-2.13 14.69 14.69 0 01-.48-3.5c-.23-6.2 1.62-16 4.48-20.11 3.5-5 6-23.66 6-23.66s5.18.75 6-3.53a6.15 6.15 0 00.1-1.4 7.41 7.41 0 00-.09-1.11c-.89-6.24 14.72-12.88 23.5-14.31a19.67 19.67 0 013-.28 27.24 27.24 0 006.25-1.44q1.4-.43 3-1c3.68-1.24 8.08-2.88 12.75-4.68 17.56-6.81 38.82-16 38.82-16 .15-.71.32-1.39.51-2.06a27.71 27.71 0 0116.35-18.93v-2c0-3.45-.15-7-.3-10.54 0-.69-.06-1.38-.1-2.07v-1.13c0-.7-.07-1.4-.11-2.09l-.18-.14a16.41 16.41 0 01-3.9-4.2 15.27 15.27 0 01-1.42-3c-1.25-3.39-1.54-7.17-2.38-10.75l-.18-.74a84 84 0 00-4-10.58c-2.21-5.42-3.91-11-5.6-16.65q-1.54-5.13-3.11-10.28l-1.58-5.24c-.3-1-.6-2-.83-3a13.27 13.27 0 01-.26-1.4 10 10 0 01.24-4.61 32.09 32.09 0 011.32-3 7.87 7.87 0 00.5-1.38 3 3 0 00.08-.32 5.65 5.65 0 00.11-1.08 18.46 18.46 0 00-.52-3.89.07.07 0 010-.05 2.56 2.56 0 00-.05-.27 25.48 25.48 0 01-.36-3 28.45 28.45 0 013.47-15.57l.19-.36a25.22 25.22 0 011.84-2.78c.31-.42.63-.82 1-1.22-1.4 1.34-3.7.75-5-.69a3.61 3.61 0 01-.55-.75 3.81 3.81 0 01-.23-.45c-.05-.12-.09-.25-.13-.38-.7-2.45.52-5.06 2.12-7.05a18.49 18.49 0 015.74-4.7 3.84 3.84 0 01.4-.21 17.12 17.12 0 012.64-1.06 15.06 15.06 0 011.63-.44l-3.71-.34-1.5-.14a14.49 14.49 0 0113-10.91h1.08a11.73 11.73 0 011.57.13 4.44 4.44 0 01-2.65-4.33 14.41 14.41 0 009.19 3.06h.38a30 30 0 01-.34-3.27 33.19 33.19 0 010-4.46 8.44 8.44 0 006.78 2.26l-2.08-2.9a9.49 9.49 0 006.56 2.05l.48-.05a7 7 0 001.19-.23h.09c-.19-.24-.36-.49-.53-.75l-.06-.12a9.67 9.67 0 01-1-2.09 6.59 6.59 0 01-.24-.87 8.75 8.75 0 01.45-5.45c3.23 2.7 6.77 6.39 11 3.6s4.37-7.91 11-7.39a10.2 10.2 0 018.41 6.12 6.75 6.75 0 017.67-1.75 6.85 6.85 0 013.88 6.89c2.75-.69 5.71-1.37 8.35-.33s4.34 4.41 2.84 6.66a1.43 1.43 0 01-.14.2c-1.23 1.59-3.95 2.46-3.66 4.46l.42.3 1.3.94q7.65 5.52 14.9 11.6c2.48 2.08 5.12 4.58 5.29 7.83a8.64 8.64 0 01-.24 2.37c-.16.78-.38 1.56-.55 2.34a19.51 19.51 0 00-.34 6.05c.07.59.16 1.17.27 1.76 1.53 7.73 7.71 14.11 8.32 22v.56a17.78 17.78 0 01-.07 2.53c-.46 4.8-2.68 9.41-4.48 14-.11.28-.22.56-.32.84-3.47 9-5.47 18.59-7 28.16a100.26 100.26 0 01-2 10.09 26.73 26.73 0 01-5.09 10.43 16.22 16.22 0 01-3.36 3 18.67 18.67 0 01-2.65 1.41v.06c.11.61.2 1.22.31 1.83.06.32.11.64.17 1a.14.14 0 000 .06c.84 4.73 1.8 9.36 2.81 13.76l.51 2.19c12.6 4.55 14.09 13.87 14.18 17.44a9.64 9.64 0 010 1.43s19 .5 26.5 6a20.34 20.34 0 004.51 2.3 83 83 0 009.25 2.89c1.61.42 3.29.83 5 1.23 3 .69 6.18 1.36 9.25 2 8.19 1.65 15.9 3 19.81 4 9.33 2.36 30.67 22.82 30.67 22.82s2.5 20.64 5 23.65 7 13.59 7 13.59l16.54 29.41 7 12.37h4.5c.62 0 1.84.88 3.21 2.1 1.19 1.06 2.51 2.38 3.67 3.58l1.92 2.05 1.2 1.33s7.27.18 9.24 5.93c5.92-.17 13.19.22 18.28 2.5a14.14 14.14 0 012 1.08 8.68 8.68 0 014.13 5.66 8.34 8.34 0 01.18 1.44v1.7c-.36 7.57-5.29 13.87-9.82 18.11l.32.57s-.15.36-.44 1c-.08.19-.18.4-.29.64-.59 1.26-1.53 3.15-2.76 5.36a63.31 63.31 0 01-9.57 13.17l-.29.3-57.74.53-.17-.2-11.2-13.36-5.57-6.64-.17-.21-.16 1.59-.54 5.3-1.3 12.81-.07.64v.17l-.15 1.48.11-1.48h-.29l-107 1-175.62 1.94v.84h-.14v-.84l-44.75.48z" transform="translate(-79.34 -172.91)" fill="url(#a)"></path>
    <path d="M538.6 377.16s-99.5 12-90 0c3.44-4.34 4.39-17.2 4.2-31.85-.06-4.45-.22-9.06-.45-13.65-1.1-22-3.75-43.5-3.75-43.5s87-41 77-8.5c-4 13.13-2.69 31.57.35 48.88.89 5.05 1.92 10 3 14.7a344.67 344.67 0 009.65 33.92z" fill="#fbbebe"></path>
    <path d="M538.6 377.16s-99.5 12-90 0c3.44-4.34 4.39-17.2 4.2-31.85 15.17-6.48 34.47-1.65 34.47-1.65 20.32-4.05 33.35-3.26 41.68-.42a344.67 344.67 0 009.65 33.92z" opacity=".1"></path>
    <path d="M349.74 552.53v-.84l175.62-1.91 107-1h.3l-.11 1.48.15-1.48h.19v-.17l1.37-13.45.52-5.09.16-1.59.14-1.33 6.18-20.61 6.18-20.58 5.2-17.33 7.94-26.48s-4.5-10.5-7-13.5-5-23.5-5-23.5-21.34-20.33-30.67-22.67c-3.91-1-11.63-2.33-19.83-4-3.07-.62-6.22-1.28-9.25-2-1.71-.39-3.39-.8-5-1.21a87.91 87.91 0 01-9.25-2.86 20.7 20.7 0 01-4.5-2.29c-7.35-5.39-25.77-6-26.48-6a.42.42 0 010-.07v-.09a10.26 10.26 0 000-1.26c0-.4 0-.87-.09-1.4 0-.16 0-.33-.07-.5-.05-.36-.11-.74-.2-1.14a5 5 0 00-.12-.53 17.21 17.21 0 00-1.25-3.49c-.07-.16-.16-.33-.24-.49a18.25 18.25 0 00-1.7-2.63c-.13-.17-.27-.35-.42-.52a19.58 19.58 0 00-2.72-2.64c-.27-.21-.55-.43-.84-.63a4.67 4.67 0 00-.51-.36l-.89-.58-.83-.48c-.73-.4-1.5-.79-2.34-1.16-.26-.12-.54-.23-.82-.34s-.72-.28-1.09-.42h-.06l-.75-.3a36.7 36.7 0 00-1.76-.53l-.93-.24-1-.23-1-.21c-1-.2-2.07-.38-3.19-.52l-1.14-.14-1.17-.12-1.21-.1-1.72-.1-2-.07a124.68 124.68 0 00-26.24 2.79 72.27 72.27 0 00-18.26-1.68h-.87l-1 .06h-.64l-1.29.12c-.43 0-.87.09-1.3.15s-.88.11-1.31.18l-.66.11c-.65.11-1.31.23-2 .37q-.33.06-.66.15c-.87.19-1.74.42-2.6.68-.43.12-.86.26-1.29.41-.22.06-.43.14-.64.22l-.64.23-.63.25-.75.3c-.38.16-.75.33-1.12.51-.21.09-.42.19-.62.3s-.41.2-.6.31a27.75 27.75 0 00-6.21 4.38l-.51.49-.5.51c-.17.17-.33.35-.49.53a23.82 23.82 0 00-1.82 2.25c-.16.21-.31.42-.46.64a26.69 26.69 0 00-1.72 2.92c-.13.24-.25.49-.37.73a32.7 32.7 0 00-2 5.25q-.28 1-.51 2s-21.17 9.34-38.73 16.1c-4.67 1.8-9.07 3.43-12.75 4.66-1.07.36-2.07.69-3 1a26.7 26.7 0 01-6.25 1.44 19.67 19.67 0 00-3 .28c-8.07 1.31-21.9 7-23.41 12.71a3.69 3.69 0 00-.1 1.4v.11c1 7-6 6-6 6s-2.5 18.5-6 23.5c-2.53 3.6-4.26 11.63-4.48 17.69a19.61 19.61 0 00.44 5.63v.14c.4 1.34-.56 5-2.19 9.69-1.77 5.15-4.35 11.55-6.83 17.59-3.74 9.12-7.26 17.4-7.48 19.22-.09.81-.35 2.26-.71 4.13-1.46 7.62-4.7 22.13-6.3 28-1.19 4.38-2.92 10.38-4.11 14.5 0 .12-.07.24-.1.35l44.83-.44v.84h.14z" fill="#ff63a3"></path>
    <path d="M366.1 434.66s57 29.5 77.5 26zm116-12s55.5 18 74 20.5-74-20.5-74-20.5zm61.56-57.92c-29 5.34-83.6 4.19-107.2 3.38 8.65-31 50.83-20.46 50.83-20.46 52.21-10.42 56.21 11.2 56.37 17.08z" opacity=".1"></path>
    <path d="M543.66 362.74c-29 5.34-83.6 4.19-107.2 3.38 8.65-31 50.83-20.46 50.83-20.46 52.21-10.42 56.21 11.2 56.37 17.08z" fill="#ff63a3"></path>
    <path d="M697.6 499.41s34.16-5.25 34.83 9.75-17.42 25.48-17.42 25.48z" fill="#fbbebe"></path>
    <path d="M525.95 328.54a47 47 0 01-4.5 1.74c-10.78 3.72-21.65 7.47-33 8.83s-23.26.16-33.16-5.5a28.77 28.77 0 01-3-1.95c-1.1-22-3.75-43.5-3.75-43.5s87-41 77-8.5c-3.98 13.13-2.63 31.57.41 48.88z" opacity=".1"></path>
    <path d="M473.18 191.93a9.47 9.47 0 01-8.32-1.75l2.08 2.89a8.47 8.47 0 01-6.78-2.25 34.08 34.08 0 00.32 7.75 14.52 14.52 0 01-9.56-3 4.42 4.42 0 002.64 4.31 14.34 14.34 0 00-15.6 10.71l5.22.48a18.47 18.47 0 00-10.44 6.37c-1.6 2-2.82 4.56-2.12 7s4.08 4 5.92 2.26a27.94 27.94 0 00-6.1 22.79 14.47 14.47 0 01.46 5.26c-.33 1.65-1.37 3.08-1.89 4.69-1 2.92-.05 6.09.84 9l4.69 15.42c1.7 5.57 3.39 11.15 5.61 16.54a82.08 82.08 0 014 10.51c1.26 4.84 1.31 10.14 4 14.37a19.93 19.93 0 007.18 6.33c9.89 5.66 21.84 6.86 33.16 5.5s22.18-5.11 32.95-8.83a31 31 0 006.84-3c7.45-4.88 9.11-14.86 10.5-23.65 1.55-9.8 3.62-19.58 7.29-28.8 2.18-5.49 5-11.06 4.52-16.94-.61-7.81-6.79-14.14-8.32-21.82a19 19 0 01.07-7.77 17.66 17.66 0 00.79-4.7c-.17-3.22-2.81-5.7-5.29-7.77q-8.07-6.74-16.66-12.74c-.29-2 2.43-2.86 3.66-4.44 1.74-2.23-.06-5.77-2.7-6.81s-5.6-.36-8.35.33a6.59 6.59 0 00-11.55-5.11 10.2 10.2 0 00-8.42-6.08c-6.63-.52-6.76 4.55-11 7.34s-7.74-.89-11-3.57a9.28 9.28 0 001.36 9.18z" fill="#3f3d56"></path>
    <path d="M722.93 529.41s-.89 2.12-2.53 5.19a69 69 0 01-9 13.17l-.27.29h-1.62l-57.74.53h-1.38l-.17-.2-11.2-13.29-4.22-5.01-.17-.21-.36-.42-.2-.24-.26-.31-8.21-9.74 3-12.5 5.11-21.06.13-.51 1-4 .71-3 2.38-9.78 8.16-33.65 14.5 7.5 15.29 27 8.21 14.5h4.5c.85 0 2.8 1.64 4.76 3.53.7.67 1.4 1.38 2 2 1.78 1.84 3.19 3.42 3.19 3.42s7.29.16 9.25 5.9a7 7 0 01.25.85 40.3 40.3 0 002.53 6.56c1.29 2.81 2.91 6 4.55 9.19 3.05 5.85 6.15 11.42 7.29 13.44l.14.25z" fill="#ff63a3"></path>
    <path d="M637.03 484.26l-.1 1.43v.1l-.17 2.3-1.33 18.51-1.61 22.3-.46 6.28-1 13.44v.17l-107 1-175.59 1.9v.84h-.14v-1.12l.45-14.36.86-28.06.74-23.79.07-2.37a10.53 10.53 0 0111.42-10.17c4.72.4 10.85.89 18.18 1.41l3 .22c42.33 2.94 120.56 6.74 199.5 2 1.66-.09 3.33-.19 5-.31 12.24-.77 24.47-1.76 36.58-3a10.53 10.53 0 0111.6 11.23z" opacity=".1"></path>
    <path d="M349.74 552.53v-.84l175.62-1.91 107-1h.3v-.17l1-13.44.43-6 1.64-22.61 1.29-17.9v-.44a10.62 10.62 0 00-.11-2.47.3.3 0 000-.1 10.39 10.39 0 00-2-4.64 10.54 10.54 0 00-9.42-4 937.419 937.419 0 01-36.58 3c-1.67.12-3.34.22-5 .31-78.94 4.69-157.17.89-199.5-2l-3-.22c-7.33-.52-13.46-1-18.18-1.41a10.54 10.54 0 00-11.24 8.53 11 11 0 00-.18 1.64l-.68 22.16-.93 28.07-.44 14.36v1.12z" fill="#3f3d56"></path>
    <path d="M637.33 491.27l-1.23 15.33-1.83 22.85-.46 5.72-1 12.81-.06.64v.17l-.15 1.48.11-1.48h-.29l-107 1-175.65 1.9v-.28l.49-14.36 1-28.06.64-18.65a6.36 6.36 0 013.06-5.25 6.25 6.25 0 013.78-.9c2.1.17 4.68.37 7.69.59 4.89.36 10.92.78 17.94 1.22 13 .82 29.31 1.7 48 2.42 52 2 122.2 2.67 188.88-3.17 3-.26 6.1-.55 9.13-.84a6.26 6.26 0 013.48.66 5.16 5.16 0 01.86.54 6.14 6.14 0 012 2.46 3.56 3.56 0 01.25.61 6.28 6.28 0 01.36 2.59zM298.1 504.96v3.19a6.13 6.13 0 01-3.5 5.54l-40.1.77a6.12 6.12 0 01-3.57-5.57v-3z" opacity=".1"></path>
    <path fill="#3f3d56" d="M298.6 515.57l-52.25 1v-8.67l52.25-1v8.67z"></path>
    <path opacity=".1" d="M298.6 515.57l-52.25 1v-8.67l52.25-1v8.67z"></path>
    <path fill="#3f3d56" d="M300.6 515.57l-52.25 1v-8.67l52.25-1v8.67z"></path>
    <path d="M473.59 188.65a9.75 9.75 0 01-1.89-4.34 9.49 9.49 0 00.42 4.6 9 9 0 001.47-.26zm-12.7 6.64a35.12 35.12 0 01-.37-3.7v3.71zm81.5 33.37a18.34 18.34 0 01.36-2.65 18 18 0 00.8-4.69 6.16 6.16 0 00-.16-1.06c-.17.92-.44 1.84-.64 2.75a19.14 19.14 0 00-.36 5.65zm-20.8-30.9l1.09.79a19.71 19.71 0 002.57-2.22 3.67 3.67 0 00.38-3.64 3 3 0 01-.38.64c-1.23 1.58-3.95 2.45-3.66 4.43zm-82.17 9.62a12.32 12.32 0 00-.87 2.28 18.16 18.16 0 015-1.89zm13.79-10.88a14.83 14.83 0 01-1.88-1.23 4.25 4.25 0 00.09 1.18 11.86 11.86 0 011.79.05zm97.77 58.92c-.41 4.85-2.67 9.52-4.5 14.12-3.67 9.22-5.74 19-7.29 28.81-1.39 8.79-3 18.77-10.5 23.64a30 30 0 01-6.83 3c-10.78 3.73-21.65 7.47-33 8.83s-23.26.17-33.16-5.49a20 20 0 01-7.18-6.33c-2.67-4.23-2.72-9.53-4-14.37a82.21 82.21 0 00-4-10.52c-2.21-5.38-3.91-11-5.6-16.53q-2.35-7.71-4.69-15.43a28.81 28.81 0 01-1.14-4.75c-.39 2.56.37 5.24 1.14 7.75q2.34 7.73 4.69 15.43c1.69 5.57 3.39 11.15 5.6 16.53a82.21 82.21 0 014 10.52c1.26 4.84 1.31 10.14 4 14.37a20 20 0 007.18 6.33c9.9 5.66 21.84 6.85 33.16 5.49s22.18-5.1 33-8.83a30 30 0 006.83-3c7.45-4.87 9.11-14.85 10.5-23.64 1.55-9.81 3.62-19.59 7.29-28.81 2.18-5.48 5-11.05 4.52-16.94 0-.06-.02-.12-.02-.18zm-119.69-3.87v-.11a14 14 0 00-.46-5.25 26.59 26.59 0 01-.39-3.32 27.35 27.35 0 00.39 6.32c.16.78.34 1.57.46 2.36zm3.05-24.46a27.74 27.74 0 012.61-3.67c-1.83 1.75-5.21.19-5.92-2.24a5.83 5.83 0 000 3 4.39 4.39 0 003.31 2.91zM684.1 483.66s3.17 11.5 0 21.5 0-21.5 0-21.5zm13.5 11.73s1.33 14.6-1.67 17.19 1.67-17.19 1.67-17.19z" opacity=".1"></path>
    <path fill="none" stroke="#ff63a3" stroke-miterlimit="10" stroke-width="2" d="M198.99 342.86l101.61-1m-101.61 13.47l101.61-.99m-101.61 13.47l101.61-1"></path>
  </symbol>
  <symbol aria-hidden="true" data-prefix="fab" data-icon="js" xmlns="http://www.w3.org/2000/svg" viewBox="0 0 448 512" id="js">
    <path fill="currentColor" d="M0 32v448h448V32H0zm243.8 349.4c0 43.6-25.6 63.5-62.9 63.5-33.7 0-53.2-17.4-63.2-38.5l34.3-20.7c6.6 11.7 12.6 21.6 27.1 21.6 13.8 0 22.6-5.4 22.6-26.5V237.7h42.1v143.7zm99.6 63.5c-39.1 0-64.4-18.6-76.7-43l34.3-19.8c9 14.7 20.8 25.6 41.5 25.6 17.4 0 28.6-8.7 28.6-20.8 0-14.4-11.4-19.5-30.7-28l-10.5-4.5c-30.4-12.9-50.5-29.2-50.5-63.5 0-31.6 24.1-55.6 61.6-55.6 26.8 0 46 9.3 59.8 33.7L368 290c-7.2-12.9-15-18-27.1-18-12.3 0-20.1 7.8-20.1 18 0 12.6 7.8 17.7 25.9 25.6l10.5 4.5c35.8 15.3 55.9 31 55.9 66.2 0 37.8-29.8 58.6-69.7 58.6z"></path>
  </symbol>
  <symbol aria-hidden="true" data-prefix="fab" data-icon="css3-alt" xmlns="http://www.w3.org/2000/svg" viewBox="0 0 384 512" id="html">
    <path fill="currentColor" d="M0 32l34.9 395.8L192 480l157.1-52.2L384 32H0zm313.1 80l-4.8 47.3L193 208.6l-.3.1h111.5l-12.8 146.6-98.2 28.7-98.8-29.2-6.4-73.9h48.9l3.2 38.3 52.6 13.3 54.7-15.4 3.7-61.6-166.3-.5v-.1l-.2.1-3.6-46.3L193.1 162l6.5-2.7H76.7L70.9 112h242.2z"></path>
  </symbol>
  <symbol aria-hidden="true" data-prefix="fab" data-icon="html5" xmlns="http://www.w3.org/2000/svg" viewBox="0 0 384 512" id="css3">
    <path fill="currentColor" d="M0 32l34.9 395.8L191.5 480l157.6-52.2L384 32H0zm308.2 127.9H124.4l4.1 49.4h175.6l-13.6 148.4-97.9 27v.3h-1.1l-98.7-27.3-6-75.8h47.7L138 320l53.5 14.5 53.7-14.5 6-62.2H84.3L71.5 112.2h241.1l-4.4 47.7z"></path>
  </symbol>
  <symbol aria-hidden="true" data-prefix="fas" data-icon="sort-amount-up" xmlns="http://www.w3.org/2000/svg" viewBox="0 0 512 512" id="code">
    <path fill="currentColor" d="M304 416h-64a16 16 0 00-16 16v32a16 16 0 0016 16h64a16 16 0 0016-16v-32a16 16 0 00-16-16zM16 160h48v304a16 16 0 0016 16h32a16 16 0 0016-16V160h48c14.21 0 21.38-17.24 11.31-27.31l-80-96a16 16 0 00-22.62 0l-80 96C-5.35 142.74 1.77 160 16 160zm416 0H240a16 16 0 00-16 16v32a16 16 0 0016 16h192a16 16 0 0016-16v-32a16 16 0 00-16-16zm-64 128H240a16 16 0 00-16 16v32a16 16 0 0016 16h128a16 16 0 0016-16v-32a16 16 0 00-16-16zM496 32H240a16 16 0 00-16 16v32a16 16 0 0016 16h256a16 16 0 0016-16V48a16 16 0 00-16-16z"></path>
  </symbol>
  <symbol xmlns="http://www.w3.org/2000/svg" viewBox="0 0 24 24" id="user">
    <path d="M21.5 24h-19A2.503 2.503 0 010 21.5v-19C0 1.122 1.121 0 2.5 0h19C22.879 0 24 1.122 24 2.5v19c0 1.378-1.121 2.5-2.5 2.5zM2.5 1C1.673 1 1 1.673 1 2.5v19c0 .827.673 1.5 1.5 1.5h19c.827 0 1.5-.673 1.5-1.5v-19c0-.827-.673-1.5-1.5-1.5z"></path>
    <path d="M16.5 8h-9a.5.5 0 010-1h9a.5.5 0 010 1zm0 4.5h-9a.5.5 0 010-1h9a.5.5 0 010 1zm0 4.5h-9a.5.5 0 010-1h9a.5.5 0 010 1z"></path>
  </symbol>
</svg>